<svg xmlns="http://www.w3.org/2000/svg" viewBox="0 0 32 32">
  <rect width="32" height="32" rx="6" fill="#D4763C"/>
  <g fill="#FFFFFF">
    <ellipse cx="8.5" cy="9" rx="2.4" ry="3" transform="rotate(-15 8.5 9)"/>
    <ellipse cx="23.5" cy="9" rx="2.4" ry="3" transform="rotate(15 23.5 9)"/>
    <ellipse cx="12" cy="7" rx="2.1" ry="2.7" transform="rotate(-5 12 7)"/>
    <ellipse cx="20" cy="7" rx="2.1" ry="2.7" transform="rotate(5 20 7)"/>
    <path d="M16 23.5c-3.3 0-6-1.6-6.9-4.1-.5-1.4.1-2.9 1.1-4.1 1.2-1.5 2.9-2.4 4.2-3.2.7-.4 1.3-.5 1.6-.5s.9.1 1.6.5c1.3.8 3 1.7 4.2 3.2 1 1.2 1.6 2.7 1.1 4.1-.9 2.5-3.6 4.1-6.9 4.1z"/>
  </g>
</svg>
